<svg xmlns="http://www.w3.org/2000/svg" width="173" height="30" viewBox="0 0 173 30">
    <g fill="none" fill-rule="evenodd">
        <path fill="#FFF" d="M112.9 18.994l-3.252-.747c-1.334-.32-2-.933-2-1.946 0-1.201 1.2-2.027 2.826-2.027 1.893 0 2.827.853 3.147 2.027h3.654c-.428-3.094-2.828-5.12-6.774-5.12-3.76 0-6.453 2.24-6.453 5.466 0 2.747 1.946 4.293 4.506 4.853l3.174.72c1.546.347 2.187.934 2.187 2 0 1.334-1.281 2.214-3.067 2.214-1.707 0-2.96-.827-3.44-2.294h-3.733c.479 3.414 3.173 5.387 7.146 5.387 3.76 0 6.72-2.08 6.72-5.52 0-2.693-1.76-4.346-4.64-5.013zm-19.572-1.427V16.3H89.78v12.933h3.547v-8.39c.416-.921 1.468-1.45 2.64-1.45.506 0 .959.053 1.36.186v-3.493a6.158 6.158 0 0 0-1.094-.08c-1.28 0-2.347.633-2.906 1.56zm30.586-4.76h-3.546V16.3h-1.974v2.88h1.974v6.159c0 2.854 1.706 4.16 4.427 4.16.906 0 1.706-.16 2.159-.346v-2.987c-.373.16-.907.24-1.386.24-1.041 0-1.654-.507-1.654-1.467v-5.76h3.04V16.3h-3.04v-3.493zm8.933 4.759V16.3H129.3v12.933h3.547v-8.39c.417-.921 1.468-1.45 2.64-1.45.507 0 .96.053 1.36.186v-3.493a6.137 6.137 0 0 0-1.093-.08c-1.28 0-2.347.633-2.907 1.559zm21.367 3.8c.336-1.528 1.273-2.425 2.66-2.425 1.45 0 2.318 1.067 2.372 2.426h-5.032zm2.607-5.36c-3.52 0-6.133 2.88-6.133 6.775 0 4 2.506 6.746 6.267 6.746 3.253 0 5.28-1.76 5.733-4.507h-3.307c-.293 1.04-1.2 1.6-2.293 1.6-1.53 0-2.675-1.028-2.95-2.96h8.657c.373-4.533-1.84-7.653-5.974-7.653zM44.5 11.475h-14.08V14.7h5.148v14.533h3.733V14.7h5.2v-3.227zm96.327 9.893c.335-1.53 1.273-2.426 2.66-2.426 1.449 0 2.318 1.067 2.372 2.426h-5.032zm2.607-5.36c-3.52 0-6.134 2.88-6.134 6.774 0 4 2.507 6.746 6.267 6.746 3.253 0 5.28-1.76 5.733-4.507h-3.306c-.293 1.04-1.2 1.6-2.293 1.6-1.53 0-2.676-1.028-2.95-2.96h8.656c.373-4.533-1.84-7.653-5.973-7.653zm-64.528 5.36c.336-1.53 1.273-2.426 2.66-2.426 1.45 0 2.319 1.067 2.373 2.426h-5.033zm2.608-5.36c-3.52 0-6.134 2.88-6.134 6.774 0 4 2.507 6.746 6.267 6.746 3.253 0 5.28-1.76 5.733-4.507h-3.306c-.294 1.04-1.2 1.6-2.294 1.6-1.53 0-2.674-1.028-2.95-2.96h8.657c.373-4.533-1.84-7.653-5.973-7.653zm90.639 3.174V16.3h-3.04v-3.494h-3.546V16.3h-1.974v2.88h1.974v6.159c0 2.854 1.707 4.16 4.427 4.16.906 0 1.706-.16 2.159-.346v-2.987c-.373.16-.906.24-1.386.24-1.04 0-1.654-.507-1.654-1.467v-5.76h3.04zM49.088 26.487c-1.813 0-2.772-1.573-2.772-3.706 0-2.161.959-3.734 2.772-3.734 1.787 0 2.774 1.573 2.774 3.734 0 2.133-.987 3.706-2.774 3.706zm0-10.48c-3.76 0-6.346 2.774-6.346 6.774 0 3.973 2.587 6.746 6.346 6.746 3.76 0 6.32-2.773 6.32-6.746 0-4-2.56-6.774-6.32-6.774zm19.994 8.778L66.848 16.3h-2.746l-2.21 8.479-2.35-8.48h-3.467l3.947 12.934h3.306l2.107-7.732 2.107 7.732h3.306l3.92-12.933h-3.333l-2.353 8.484z"/>
        <path fill="#38DE77" d="M5.847 29.233h5.846V0L5.847 5.78z"/>
        <path fill="#2DB25F" d="M17.54 29.233h-5.847V0L17.54 5.78zM23.386 29.233H17.54V5.78l5.846 5.742z"/>
        <path fill="#2DB25F" d="M11.693 29.233H5.847V15.515l5.846 5.834z"/>
        <path fill="#38DE77" d="M11.693 29.233h5.846V5.78l-5.846 5.742zM0 29.233h5.846V15.515L0 21.35z"/>
    </g>
</svg>
