<?xml version="1.0" encoding="UTF-8"?>
<svg width="1600px" height="1160px" viewBox="0 0 1600 1160" version="1.1" xmlns="http://www.w3.org/2000/svg" xmlns:xlink="http://www.w3.org/1999/xlink">
    <!-- Generator: Sketch 53.1 (72631) - https://sketchapp.com -->
    <title>Group 4</title>
    <desc>Created with Sketch.</desc>
    <defs>
        <polygon id="path-1" points="244.998896 242.223504 244.998896 650.31078 0 894.848282 0 1226.00221 979.986755 1226 980 482.881527 735.001104 242.223504 490.004415 0"></polygon>
    </defs>
    <g id="Attack-Simulator-Jakub-V5" stroke="none" stroke-width="1" fill="none" fill-rule="evenodd">
        <g id="Attack-Simulator_START">
            <g id="Group-4" transform="translate(-256.000000, -1127.000000)">
                <path d="M1935.846,2421.596 L1454.297,2421.596 L1454.297,484.094 L1935.869,957.031 L1935.846,2421.596 Z M483.963,2421.604 L2.39,2421.604 L2.39,1770.638 L483.963,1290.077 L483.963,2421.604 Z M967.93,5.723 L967.93,956.025 L967.914,956.041 L967.93,1767.262 L486.356,1286.702 L486.356,481.743 L967.93,5.723 Z M1451.392,481.234 L970.334,953.664 L970.334,5.723 L1451.392,481.234 Z M970.334,2421.596 L970.334,957.015 L1451.876,484.108 L1451.876,2421.596 L970.334,2421.596 Z M967.93,1983.613 L967.93,2421.596 L486.363,2421.596 L486.363,1290.085 L967.927,1770.636 L967.93,1983.613 Z M1454.267,480.713 L1454.267,478.41 L1453.097,479.559 L970.321,2.349 L970.321,0 L969.132,1.175 L967.945,0 L967.945,2.349 L484.32,480.394 L483.965,480.744 L483.965,1286.7 L0.35,1769.298 L-9.09494702e-13,1769.648 L-9.09494702e-13,2424 L483.972,2423.993 L483.972,2424 L967.937,2424 L970.325,2424 L1454.267,2424 L1454.267,2423.987 L1454.297,2423.987 L1938.236,2423.987 L1938.259,956.027 L1454.267,480.713 Z" id="Fill-1" fill="#FFFFFF" opacity="0.02"></path>
                <g id="Fill-1" transform="translate(969.000000, 1116.000000)">
                    <mask id="mask-2" fill="white">
                        <use xlink:href="#path-1"></use>
                    </mask>
                    <g id="Mask"></g>
                    <path d="M1935.846,1546.596 L1454.297,1546.596 L1454.297,-390.906 L1935.869,82.031 L1935.846,1546.596 Z M483.963,1546.604 L2.39,1546.604 L2.39,895.638 L483.963,415.077 L483.963,1546.604 Z M967.93,-869.277 L967.93,81.025 L967.914,81.041 L967.93,892.262 L486.356,411.702 L486.356,-393.257 L967.93,-869.277 Z M1451.392,-393.766 L970.334,78.664 L970.334,-869.277 L1451.392,-393.766 Z M970.334,1546.596 L970.334,82.015 L1451.876,-390.892 L1451.876,1546.596 L970.334,1546.596 Z M967.93,1108.613 L967.93,1546.596 L486.363,1546.596 L486.363,415.085 L967.927,895.636 L967.93,1108.613 Z M1454.267,-394.287 L1454.267,-396.59 L1453.097,-395.441 L970.321,-872.651 L970.321,-875 L969.132,-873.825 L967.945,-875 L967.945,-872.651 L484.32,-394.606 L483.965,-394.256 L483.965,411.7 L0.35,894.298 L0,894.648 L0,1549 L483.972,1548.993 L483.972,1549 L967.937,1549 L970.325,1549 L1454.267,1549 L1454.267,1548.987 L1454.297,1548.987 L1938.236,1548.987 L1938.259,81.027 L1454.267,-394.287 Z" fill="#FFFFFF" opacity="0.0714750744" mask="url(#mask-2)"></path>
                </g>
            </g>
        </g>
    </g>
</svg>