<?xml version="1.0" encoding="UTF-8"?>
<svg width="232px" height="25px" viewBox="0 0 232 25" version="1.1" xmlns="http://www.w3.org/2000/svg" xmlns:xlink="http://www.w3.org/1999/xlink">
    <!-- Generator: Sketch 53.2 (72643) - https://sketchapp.com -->
    <title>Group</title>
    <desc>Created with Sketch.</desc>
    <g id="Page-1" stroke="none" stroke-width="1" fill="none" fill-rule="evenodd">
        <g id="Group" transform="translate(0.000000, -5.000000)">
            <g id="Group-2" transform="translate(30.000000, 0.000000)" fill="#878787" fill-rule="nonzero">
                <g id="Group-3">
                    <path d="M8.256,24.288 C4.296,24.288 1.176,21.408 1.176,16.2 C1.176,11.064 4.392,8.016 8.352,8.016 C10.32,8.016 11.904,8.952 12.888,10.008 L11.4,11.808 C10.584,10.992 9.648,10.44 8.424,10.44 C5.856,10.44 4.032,12.6 4.032,16.128 C4.032,19.704 5.712,21.864 8.352,21.864 C9.744,21.864 10.824,21.216 11.712,20.256 L13.2,22.008 C11.928,23.472 10.272,24.288 8.256,24.288 Z M16.368,28.848 C15.72,28.848 15.264,28.752 14.832,28.608 L15.336,26.448 C15.552,26.52 15.888,26.616 16.176,26.616 C17.424,26.616 18.144,25.776 18.528,24.6 L18.744,23.856 L14.112,12.216 L16.92,12.216 L18.96,18 C19.296,19.032 19.632,20.208 19.992,21.312 L20.088,21.312 C20.376,20.232 20.688,19.056 20.976,18 L22.752,12.216 L25.416,12.216 L21.144,24.528 C20.16,27.192 18.936,28.848 16.368,28.848 Z M33.168,24.288 C32.088,24.288 30.936,23.736 29.952,22.752 L29.88,22.752 L29.64,24 L27.456,24 L27.456,7.056 L30.216,7.056 L30.216,11.424 L30.144,13.392 C31.128,12.528 32.352,11.928 33.552,11.928 C36.504,11.928 38.208,14.28 38.208,17.904 C38.208,21.96 35.784,24.288 33.168,24.288 Z M32.592,22.008 C34.152,22.008 35.352,20.616 35.352,17.952 C35.352,15.6 34.584,14.208 32.808,14.208 C31.944,14.208 31.128,14.64 30.216,15.528 L30.216,21.024 C31.056,21.744 31.896,22.008 32.592,22.008 Z M46.008,24.288 C42.744,24.288 40.2,22.008 40.2,18.12 C40.2,14.28 42.864,11.928 45.624,11.928 C48.816,11.928 50.496,14.232 50.496,17.52 C50.496,18.048 50.448,18.576 50.376,18.864 L42.888,18.864 C43.128,20.952 44.472,22.152 46.368,22.152 C47.376,22.152 48.24,21.84 49.104,21.288 L50.04,23.016 C48.912,23.76 47.496,24.288 46.008,24.288 Z M42.864,16.992 L48.096,16.992 C48.096,15.168 47.304,14.064 45.696,14.064 C44.304,14.064 43.104,15.096 42.864,16.992 Z M53.136,24 L53.136,12.216 L55.416,12.216 L55.608,14.304 L55.704,14.304 C56.544,12.768 57.792,11.928 59.04,11.928 C59.64,11.928 60.024,12 60.384,12.168 L59.904,14.568 C59.496,14.448 59.184,14.376 58.68,14.376 C57.744,14.376 56.616,15.024 55.896,16.8 L55.896,24 L53.136,24 Z M67.128,24 L67.128,8.304 L69.912,8.304 L69.912,14.616 L76.272,14.616 L76.272,8.304 L79.056,8.304 L79.056,24 L76.272,24 L76.272,17.04 L69.912,17.04 L69.912,24 L67.128,24 Z M87.84,24.288 C84.576,24.288 82.032,22.008 82.032,18.12 C82.032,14.28 84.696,11.928 87.456,11.928 C90.648,11.928 92.328,14.232 92.328,17.52 C92.328,18.048 92.28,18.576 92.208,18.864 L84.72,18.864 C84.96,20.952 86.304,22.152 88.2,22.152 C89.208,22.152 90.072,21.84 90.936,21.288 L91.872,23.016 C90.744,23.76 89.328,24.288 87.84,24.288 Z M84.696,16.992 L89.928,16.992 C89.928,15.168 89.136,14.064 87.528,14.064 C86.136,14.064 84.936,15.096 84.696,16.992 Z M97.824,24.288 C95.76,24.288 94.344,22.896 94.344,20.832 C94.344,18.312 96.432,16.992 101.28,16.464 C101.232,15.216 100.728,14.16 99.12,14.16 C97.968,14.16 96.864,14.688 95.808,15.312 L94.8,13.464 C96.096,12.648 97.776,11.928 99.648,11.928 C102.576,11.928 104.04,13.728 104.04,17.016 L104.04,24 L101.76,24 L101.568,22.704 L101.472,22.704 C100.416,23.592 99.216,24.288 97.824,24.288 Z M98.712,22.128 C99.672,22.128 100.392,21.648 101.28,20.832 L101.28,18.192 C98.064,18.6 97.008,19.44 97.008,20.616 C97.008,21.672 97.728,22.128 98.712,22.128 Z M110.04,24.288 C108.072,24.288 107.352,23.016 107.352,20.976 L107.352,7.056 L110.112,7.056 L110.112,21.12 C110.112,21.792 110.424,22.032 110.712,22.032 C110.832,22.032 110.928,22.032 111.144,21.984 L111.504,24.048 C111.168,24.192 110.688,24.288 110.04,24.288 Z M118.008,24.288 C115.272,24.288 114.264,22.56 114.264,20.016 L114.264,14.4 L112.584,14.4 L112.584,12.336 L114.408,12.216 L114.744,9 L117.048,9 L117.048,12.216 L120.048,12.216 L120.048,14.4 L117.048,14.4 L117.048,20.016 C117.048,21.408 117.576,22.08 118.704,22.08 C119.112,22.08 119.592,21.96 119.928,21.816 L120.408,23.856 C119.76,24.072 118.944,24.288 118.008,24.288 Z M122.52,24 L122.52,7.056 L125.28,7.056 L125.28,11.424 L125.184,13.704 C126.168,12.768 127.344,11.928 128.952,11.928 C131.472,11.928 132.576,13.632 132.576,16.608 L132.576,24 L129.816,24 L129.816,16.968 C129.816,15.024 129.264,14.304 127.968,14.304 C126.936,14.304 126.264,14.808 125.28,15.768 L125.28,24 L122.52,24 Z M147.216,24.288 C143.256,24.288 140.136,21.408 140.136,16.2 C140.136,11.064 143.352,8.016 147.312,8.016 C149.28,8.016 150.864,8.952 151.848,10.008 L150.36,11.808 C149.544,10.992 148.608,10.44 147.384,10.44 C144.816,10.44 142.992,12.6 142.992,16.128 C142.992,19.704 144.672,21.864 147.312,21.864 C148.704,21.864 149.784,21.216 150.672,20.256 L152.16,22.008 C150.888,23.472 149.232,24.288 147.216,24.288 Z M154.536,24 L154.536,7.056 L157.296,7.056 L157.296,11.424 L157.2,13.704 C158.184,12.768 159.36,11.928 160.968,11.928 C163.488,11.928 164.592,13.632 164.592,16.608 L164.592,24 L161.832,24 L161.832,16.968 C161.832,15.024 161.28,14.304 159.984,14.304 C158.952,14.304 158.28,14.808 157.296,15.768 L157.296,24 L154.536,24 Z M172.968,24.288 C169.704,24.288 167.16,22.008 167.16,18.12 C167.16,14.28 169.824,11.928 172.584,11.928 C175.776,11.928 177.456,14.232 177.456,17.52 C177.456,18.048 177.408,18.576 177.336,18.864 L169.848,18.864 C170.088,20.952 171.432,22.152 173.328,22.152 C174.336,22.152 175.2,21.84 176.064,21.288 L177,23.016 C175.872,23.76 174.456,24.288 172.968,24.288 Z M169.824,16.992 L175.056,16.992 C175.056,15.168 174.264,14.064 172.656,14.064 C171.264,14.064 170.064,15.096 169.824,16.992 Z M185.016,24.288 C181.8,24.288 179.328,22.032 179.328,18.12 C179.328,14.184 182.088,11.928 185.232,11.928 C186.744,11.928 187.824,12.504 188.688,13.248 L187.344,15.048 C186.72,14.496 186.12,14.184 185.376,14.184 C183.48,14.184 182.16,15.744 182.16,18.12 C182.16,20.472 183.456,22.032 185.304,22.032 C186.216,22.032 187.056,21.576 187.728,21.024 L188.856,22.848 C187.752,23.808 186.36,24.288 185.016,24.288 Z M191.184,24 L191.184,7.056 L193.896,7.056 L193.896,17.64 L193.968,17.64 L198.336,12.216 L201.36,12.216 L197.328,17.016 L201.768,24 L198.768,24 L195.744,18.888 L193.896,21 L193.896,24 L191.184,24 Z" id="CyberHealthCheck"></path>
                </g>
            </g>
            <g id="Group-5" transform="translate(0.000000, 5.000000)">
                <polygon id="Fill-1" fill="#27A0F2" points="17.6535844 0.000113636364 8.81867813 0.02 8.87520938 24.8518182 17.7992719 16.2583523 17.7669281 0.000113636364"></polygon>
                <polygon id="Fill-2" fill="#0BC6FF" points="0.0324 0.000113636364 5.625e-05 16.2583523 8.92411875 24.8518182 8.98065 0.02 0.14574375 0.000113636364"></polygon>
                <polygon id="Fill-3" fill="#FFFFFF" points="7.89496875 15.3629545 10.0662187 15.3629545 10.0662187 5.31153409 7.89496875 5.31153409"></polygon>
                <polygon id="Fill-4" fill="#FFFFFF" points="4.005 11.4339773 13.9559063 11.4339773 13.9559063 9.24107955 4.005 9.24107955"></polygon>
            </g>
        </g>
    </g>
</svg>