<?xml version="1.0" encoding="UTF-8"?>
<svg width="145px" height="25px" viewBox="0 0 145 25" version="1.1" xmlns="http://www.w3.org/2000/svg" xmlns:xlink="http://www.w3.org/1999/xlink">
    <!-- Generator: Sketch 52.5 (67469) - http://www.bohemiancoding.com/sketch -->
    <title>Group 2</title>
    <desc>Created with Sketch.</desc>
    <g id="Page-1" stroke="none" stroke-width="1" fill="none" fill-rule="evenodd">
        <g id="ASMGi_TS_LP" transform="translate(-422.000000, -56.000000)">
            <g id="Group-2" transform="translate(422.000000, 56.000000)">
                <g id="Group-15">
                    <path d="M94.627922,15.8280833 L91.9014191,15.2055833 C90.7833266,14.9389167 90.2251185,14.4280833 90.2251185,13.5839167 C90.2251185,12.5830833 91.2308988,11.89475 92.5937312,11.89475 C94.1803497,11.89475 94.9631821,12.6055833 95.2313902,13.5839167 L98.2939913,13.5839167 C97.935263,11.0055833 95.9237023,9.31725 92.6163613,9.31725 C89.4649162,9.31725 87.2077775,11.1839167 87.2077775,13.87225 C87.2077775,16.1614167 88.8388179,17.44975 90.9844827,17.9164167 L93.6447717,18.51725 C94.940552,18.8055833 95.4778064,19.29475 95.4778064,20.1839167 C95.4778064,21.29475 94.4041358,22.0280833 92.9071994,22.0280833 C91.4764769,22.0280833 90.4262746,21.3389167 90.0239624,20.1164167 L86.8951474,20.1164167 C87.2966214,22.9614167 89.5545983,24.6055833 92.8845694,24.6055833 C96.0360145,24.6055833 98.5169393,22.87225 98.5169393,20.0055833 C98.5169393,17.7614167 97.0417948,16.3839167 94.627922,15.8280833 Z M78.2228064,14.6389167 L78.2228064,13.5839167 L75.2498873,13.5839167 L75.2498873,24.3614167 L78.2228064,24.3614167 L78.2228064,17.36975 C78.5714769,16.60225 79.453211,16.1614167 80.4355231,16.1614167 C80.8596272,16.1614167 81.2393092,16.2055833 81.5754075,16.3164167 L81.5754075,13.4055833 C81.3516214,13.3614167 81.0163613,13.3389167 80.6584711,13.3389167 C79.5864769,13.3389167 78.6913324,13.8664167 78.2228064,14.6389167 Z M103.858471,10.67225 L100.88639,10.67225 L100.88639,13.5839167 L99.2318815,13.5839167 L99.2318815,15.9839167 L100.88639,15.9839167 L100.88639,21.1164167 C100.88639,23.49475 102.316275,24.5830833 104.596882,24.5830833 C105.356246,24.5830833 106.026766,24.44975 106.406448,24.29475 L106.406448,21.8055833 C106.093818,21.9389167 105.646246,22.0055833 105.244772,22.0055833 C104.372257,22.0055833 103.858471,21.5830833 103.858471,20.7830833 L103.858471,15.9839167 L106.406448,15.9839167 L106.406448,13.5839167 L103.858471,13.5839167 L103.858471,10.67225 Z M111.345668,14.6380833 L111.345668,13.5839167 L108.372749,13.5839167 L108.372749,24.3614167 L111.345668,24.3614167 L111.345668,17.36975 C111.695176,16.60225 112.576072,16.1614167 113.558384,16.1614167 C113.983327,16.1614167 114.363009,16.2055833 114.698269,16.3164167 L114.698269,13.4055833 C114.475321,13.3614167 114.140061,13.3389167 113.782171,13.3389167 C112.710176,13.3389167 111.815032,13.8664167 111.345668,14.6380833 Z M129.254425,17.8055833 C129.536043,16.5314167 130.32139,15.7839167 131.484743,15.7839167 C132.699223,15.7839167 133.426737,16.6730833 133.471997,17.8055833 L129.254425,17.8055833 Z M131.439483,13.3389167 C128.489194,13.3389167 126.299107,15.7389167 126.299107,18.9839167 C126.299107,22.31725 128.399512,24.6055833 131.551795,24.6055833 C134.278298,24.6055833 135.977228,23.1389167 136.35691,20.84975 L133.585147,20.84975 C133.339569,21.7164167 132.579367,22.1830833 131.663269,22.1830833 C130.381737,22.1830833 129.421217,21.3264167 129.191564,19.71725 L136.446592,19.71725 C136.759223,15.9389167 134.904396,13.3389167 131.439483,13.3389167 Z M37.2992803,9.56141667 L25.4981243,9.56141667 L25.4981243,12.2505833 L29.8120838,12.2505833 L29.8120838,24.3614167 L32.9408988,24.3614167 L32.9408988,12.2505833 L37.2992803,12.2505833 L37.2992803,9.56141667 Z M118.034945,17.8055833 C118.315725,16.5314167 119.10191,15.7839167 120.264425,15.7839167 C121.478905,15.7839167 122.207257,16.6730833 122.252517,17.8055833 L118.034945,17.8055833 Z M120.220003,13.3389167 C117.269714,13.3389167 115.078789,15.7389167 115.078789,18.9839167 C115.078789,22.31725 117.180032,24.6055833 120.331477,24.6055833 C123.05798,24.6055833 124.75691,23.1389167 125.136592,20.84975 L122.365668,20.84975 C122.12009,21.7164167 121.359887,22.1830833 120.443789,22.1830833 C119.161419,22.1830833 118.200899,21.3264167 117.972084,19.71725 L125.226275,19.71725 C125.538905,15.9389167 123.684078,13.3389167 120.220003,13.3389167 Z M66.135841,17.8055833 C66.4174595,16.5314167 67.2028064,15.7839167 68.366159,15.7839167 C69.5806387,15.7839167 70.3089913,16.6730833 70.3542514,17.8055833 L66.135841,17.8055833 Z M68.321737,13.3389167 C65.371448,13.3389167 63.1805231,15.7389167 63.1805231,18.9839167 C63.1805231,22.31725 65.2817659,24.6055833 68.433211,24.6055833 C71.1597139,24.6055833 72.8586445,23.1389167 73.2383266,20.84975 L70.4674017,20.84975 C70.2209855,21.7164167 69.4616214,22.1830833 68.544685,22.1830833 C67.2631532,22.1830833 66.3034711,21.3264167 66.0729798,19.71725 L73.3280087,19.71725 C73.6406387,15.9389167 71.7858121,13.3389167 68.321737,13.3389167 Z M144.290841,15.9839167 L144.290841,13.5839167 L141.742864,13.5839167 L141.742864,10.67225 L138.770783,10.67225 L138.770783,13.5839167 L137.116275,13.5839167 L137.116275,15.9839167 L138.770783,15.9839167 L138.770783,21.1164167 C138.770783,23.49475 140.201506,24.5830833 142.481275,24.5830833 C143.240639,24.5830833 143.911159,24.44975 144.290841,24.29475 L144.290841,21.8055833 C143.978211,21.9389167 143.531477,22.0055833 143.129165,22.0055833 C142.257488,22.0055833 141.742864,21.5830833 141.742864,20.7830833 L141.742864,15.9839167 L144.290841,15.9839167 Z M41.1430376,22.07225 C39.6234711,22.07225 38.819685,20.7614167 38.819685,18.9839167 C38.819685,17.1830833 39.6234711,15.87225 41.1430376,15.87225 C42.6408121,15.87225 43.4680665,17.1830833 43.4680665,18.9839167 C43.4680665,20.7614167 42.6408121,22.07225 41.1430376,22.07225 Z M41.1430376,13.3389167 C37.9924306,13.3389167 35.8241358,15.6505833 35.8241358,18.9839167 C35.8241358,22.29475 37.9924306,24.6055833 41.1430376,24.6055833 C44.2944827,24.6055833 46.4401474,22.29475 46.4401474,18.9839167 C46.4401474,15.6505833 44.2944827,13.3389167 41.1430376,13.3389167 Z M57.9010145,20.6539167 L56.0285867,13.5839167 L53.727026,13.5839167 L51.875552,20.64975 L49.9050607,13.5839167 L46.9991936,13.5839167 L50.3073728,24.3614167 L53.0782977,24.3614167 L54.8442803,17.9180833 L56.610263,24.3614167 L59.3811879,24.3614167 L62.6675751,13.5839167 L59.8731821,13.5839167 L57.9010145,20.6539167 Z" id="Fill-1" fill="#FFFFFF"></path>
                    <polygon id="Fill-3" fill="#38DE77" points="4.90041329 24.36125 9.80023988 24.36125 9.80023988 0.000416666667 4.90041329 4.81541667"></polygon>
                    <polygon id="Fill-5" fill="#2DB25F" points="14.700737 24.36125 9.80007225 24.36125 9.80007225 0.000416666667 14.700737 4.81541667"></polygon>
                    <polygon id="Fill-7" fill="#2DB25F" points="19.6007312 24.36125 14.7009046 24.36125 14.7009046 4.81541667 19.6007312 9.60041667"></polygon>
                    <polygon id="Fill-9" fill="#2DB25F" points="9.80040751 24.36125 4.90058092 24.36125 4.90058092 12.9295833 9.80040751 17.79125"></polygon>
                    <polygon id="Fill-11" fill="#38DE77" points="9.80040751 24.36125 14.7002341 24.36125 14.7002341 4.81625 9.80040751 9.60041667"></polygon>
                    <polygon id="Fill-13" fill="#38DE77" points="0 24.36125 4.89982659 24.36125 4.89982659 12.9295833 0 17.79125"></polygon>
                </g>
            </g>
        </g>
    </g>
</svg>