<?xml version="1.0" encoding="UTF-8"?>
<svg width="15px" height="28px" viewBox="0 0 15 28" version="1.1" xmlns="http://www.w3.org/2000/svg" xmlns:xlink="http://www.w3.org/1999/xlink">
    <!-- Generator: Sketch 53.1 (72631) - https://sketchapp.com -->
    <title>Path</title>
    <desc>Created with Sketch.</desc>
    <g id="Attack-Simulator-Jakub-V5" stroke="none" stroke-width="1" fill="none" fill-rule="evenodd">
        <g id="results-detail-you-are-good" transform="translate(-1333.000000, -23.000000)" fill="#FFFFFF" fill-rule="nonzero">
            <path d="M1341.64769,34.6594872 C1338.76154,33.4641026 1338.27333,32.8394872 1338.27333,31.8917949 C1338.27333,30.7610256 1339.18513,30.0861538 1340.71436,30.0861538 C1342.58462,30.0861538 1343.71897,30.7358974 1344.26103,31.0446154 L1345.20872,31.5866667 L1346.66974,27.7276923 L1345.99128,27.3292308 C1344.97538,26.7333333 1343.87333,26.36 1342.6241,26.1876923 L1342.31538,26.1446154 L1342.31538,23 L1338.47795,23 L1338.47795,26.3887179 L1338.21949,26.4641026 C1335.41231,27.2933333 1333.67128,29.5189744 1333.67128,32.2723077 C1333.67128,35.8692308 1336.61846,37.5097436 1339.50103,38.6405128 C1342.28667,39.7712821 1342.52,40.7441026 1342.52,41.5661538 C1342.52,42.894359 1341.4,43.7523077 1339.66256,43.7523077 C1338.25538,43.7523077 1336.73333,43.3 1335.59538,42.5389744 L1334.60462,41.8784615 L1333.20103,45.7984615 L1333.77538,46.2076923 C1334.78051,46.925641 1336.33846,47.4784615 1337.94308,47.6902564 L1338.25538,47.7297436 L1338.25538,51 L1342.12513,51 L1342.12513,47.514359 L1342.38,47.4389744 C1345.32359,46.5594872 1347.15436,44.2261538 1347.15436,41.3471795 C1347.15436,37.4092308 1344.21077,35.7041026 1341.64769,34.6594872 Z" id="Path"></path>
        </g>
    </g>
</svg>