<?xml version="1.0" encoding="UTF-8"?>
<svg width="16px" height="21px" viewBox="0 0 16 21" version="1.1" xmlns="http://www.w3.org/2000/svg" xmlns:xlink="http://www.w3.org/1999/xlink">
    <!-- Generator: Sketch 53.1 (72631) - https://sketchapp.com -->
    <title>noun_Unlock_821910_1A1A1A</title>
    <desc>Created with Sketch.</desc>
    <g id="Attack-Simulator-Jakub-V5" stroke="none" stroke-width="1" fill="none" fill-rule="evenodd">
        <g id="results-detail-learn-more" transform="translate(-372.000000, -1065.000000)" fill="#1A1A1A" fill-rule="nonzero">
            <g id="Group-6" transform="translate(72.000000, 778.000000)">
                <g id="noun_Unlock_821910_1A1A1A" transform="translate(300.000000, 287.000000)">
                    <path d="M15.9992308,12.3115385 C15.9992308,11.2453846 15.1361538,10.3823077 14.0723077,10.3846154 L4.34769231,10.3892308 L4.34538462,10.3892308 L4.34538462,5.84538462 C4.34307692,3.83076923 6.03,2.20384615 8.06538462,2.30307692 C9.96923077,2.39769231 11.43,4.03846154 11.4323077,5.94461538 L11.4323077,7.30846154 C11.4323077,7.68923077 11.7438462,8.00076923 12.1246154,8.00076923 L12.8076923,8.00076923 C13.1907692,8.00076923 13.5023077,7.68923077 13.5,7.30615385 L13.5,5.96769231 C13.4976923,2.82692308 10.9269231,0.177692308 7.78846154,0.230769231 C4.73769231,0.283846154 2.27538462,2.78307692 2.27538462,5.84538462 L2.27769231,10.3892308 L2.07692308,10.3892308 C1.01307692,10.3915385 0.15,11.2546154 0.15,12.3184615 L0.154615385,19.0730769 C0.154615385,20.1369231 1.01769231,21 2.08153846,21 L14.0769231,20.9930769 C15.1407692,20.9930769 16.0038462,20.13 16.0038462,19.0661538 L15.9992308,12.3115385 Z" id="Path"></path>
                </g>
            </g>
        </g>
    </g>
</svg>