<?xml version="1.0" encoding="UTF-8"?>
<svg width="18px" height="5px" viewBox="0 0 18 5" version="1.1" xmlns="http://www.w3.org/2000/svg" xmlns:xlink="http://www.w3.org/1999/xlink">
    <!-- Generator: Sketch 53.1 (72631) - https://sketchapp.com -->
    <title>...</title>
    <desc>Created with Sketch.</desc>
    <g id="Attack-Simulator-Jakub-V5" stroke="none" stroke-width="1" fill="none" fill-rule="evenodd">
        <g id="Scanning" transform="translate(-748.000000, -387.000000)" fill="#42BA6F" fill-rule="nonzero">
            <g id="Group-3" transform="translate(747.000000, 367.000000)">
                <path d="M3.312,24.288 C2.79999744,24.288 2.37200172,24.1120018 2.028,23.76 C1.68399828,23.4079982 1.512,22.9600027 1.512,22.416 C1.512,21.8719973 1.68399828,21.4240018 2.028,21.072 C2.37200172,20.7199982 2.79999744,20.544 3.312,20.544 C3.82400256,20.544 4.24799832,20.7199982 4.584,21.072 C4.92000168,21.4240018 5.088,21.8719973 5.088,22.416 C5.088,22.9600027 4.92000168,23.4079982 4.584,23.76 C4.24799832,24.1120018 3.82400256,24.288 3.312,24.288 Z M9.912,24.288 C9.39999744,24.288 8.97200172,24.1120018 8.628,23.76 C8.28399828,23.4079982 8.112,22.9600027 8.112,22.416 C8.112,21.8719973 8.28399828,21.4240018 8.628,21.072 C8.97200172,20.7199982 9.39999744,20.544 9.912,20.544 C10.4240026,20.544 10.8479983,20.7199982 11.184,21.072 C11.5200017,21.4240018 11.688,21.8719973 11.688,22.416 C11.688,22.9600027 11.5200017,23.4079982 11.184,23.76 C10.8479983,24.1120018 10.4240026,24.288 9.912,24.288 Z M16.512,24.288 C15.9999974,24.288 15.5720017,24.1120018 15.228,23.76 C14.8839983,23.4079982 14.712,22.9600027 14.712,22.416 C14.712,21.8719973 14.8839983,21.4240018 15.228,21.072 C15.5720017,20.7199982 15.9999974,20.544 16.512,20.544 C17.0240026,20.544 17.4479983,20.7199982 17.784,21.072 C18.1200017,21.4240018 18.288,21.8719973 18.288,22.416 C18.288,22.9600027 18.1200017,23.4079982 17.784,23.76 C17.4479983,24.1120018 17.0240026,24.288 16.512,24.288 Z" id="..."></path>
            </g>
        </g>
    </g>
</svg>