<?xml version="1.0" encoding="UTF-8"?>
<svg width="21px" height="18px" viewBox="0 0 21 18" version="1.1" xmlns="http://www.w3.org/2000/svg" xmlns:xlink="http://www.w3.org/1999/xlink">
    <!-- Generator: Sketch 53.1 (72631) - https://sketchapp.com -->
    <title>noun_Warning_1042971_1A1A1A</title>
    <desc>Created with Sketch.</desc>
    <g id="Attack-Simulator-Jakub-V5" stroke="none" stroke-width="1" fill="none" fill-rule="evenodd">
        <g id="not-supported" transform="translate(-235.000000, -403.000000)" fill="#1A1A1A" fill-rule="nonzero">
            <g id="noun_Warning_1042971_1A1A1A" transform="translate(235.000000, 403.000000)">
                <path d="M10.2857161,0.264703235 C9.6370436,0.264703235 9.05375393,0.586056176 8.71978207,1.14981353 L0.510991121,15.0303229 C0.17693222,15.5957347 0.176056615,16.2770612 0.510991121,16.8419171 C0.775566066,17.2881318 1.32832035,17.7369141 1.97802409,17.7352994 L18.5934084,17.7352994 C19.2428537,17.7352994 19.7958295,17.2881847 20.0604414,16.8419171 C20.3953654,16.2770612 20.3945003,15.5957347 20.0604414,15.0303229 L11.8516502,1.14981353 C11.5176783,0.586056176 10.934386,0.264703235 10.2857161,0.264703235 L10.2857161,0.264703235 Z M10.2857161,1.85293853 C10.3535122,1.85293853 10.4668924,1.91849559 10.4917601,1.96047529 L18.7005513,15.8409847 C18.7253689,15.8829935 18.725448,15.9892465 18.7005513,16.0312553 C18.6053372,16.1918259 18.6619166,16.1472229 18.5934084,16.1470641 L1.97802409,16.1470641 C1.90977969,16.1472229 1.96612958,16.1918788 1.87088123,16.0312553 C1.84598453,15.9892729 1.84606365,15.8829935 1.87088123,15.8409847 L10.0796722,1.96047529 C10.1045425,1.91849559 10.2179175,1.85293853 10.2857161,1.85293853 L10.2857161,1.85293853 Z M10.2857161,5.82352676 C9.55743218,5.82352676 8.96703481,6.41609471 8.96703481,7.14705618 L9.23077108,11.1176524 C9.23077108,11.7024141 9.70308844,12.1764759 10.2857161,12.1764759 C10.8683412,12.1764759 11.3406612,11.7024141 11.3406612,11.1176524 L11.6043975,7.14705618 C11.6043975,6.41609471 11.0140001,5.82352676 10.2857161,5.82352676 Z M10.2857161,12.7058876 C9.55742954,12.7058876 8.96703481,13.2984582 8.96703481,14.0294171 C8.96703481,14.7603494 9.55742954,15.3529465 10.2857161,15.3529465 C11.0140027,15.3529465 11.6043975,14.7603494 11.6043975,14.0294171 C11.6043975,13.2984582 11.0140027,12.7058876 10.2857161,12.7058876 Z" id="Shape"></path>
            </g>
        </g>
    </g>
</svg>