<?xml version="1.0" encoding="UTF-8"?>
<svg width="26px" height="26px" viewBox="0 0 26 26" version="1.1" xmlns="http://www.w3.org/2000/svg" xmlns:xlink="http://www.w3.org/1999/xlink">
    <!-- Generator: Sketch 53.1 (72631) - https://sketchapp.com -->
    <title>noun_thumbs up_1047342_1A1A1A</title>
    <desc>Created with Sketch.</desc>
    <g id="Attack-Simulator-Jakub-V5" stroke="none" stroke-width="1" fill="none" fill-rule="evenodd" stroke-linecap="round" stroke-linejoin="round">
        <g id="results-detail-you-are-fucked" transform="translate(-739.000000, -1396.000000)" fill="#2DB25F" fill-rule="nonzero" stroke="#2DB25F" stroke-width="0.5">
            <g id="noun_thumbs-up_1047342_1A1A1A" transform="translate(740.000000, 1397.000000)">
                <path d="M16.2162162,20.6511628 C15.9382239,20.6511628 15.9382239,20.6511628 15.7528958,20.8372093 C11.4903475,25.5813953 9.63706564,23.5348837 8.52509653,23.627907 L6.94980695,24 C5.003861,24 3.98455598,23.1627907 4.26254826,21.6744186 C2.59459459,21.4883721 2.13127413,20.5581395 2.31660232,19.1627907 C0.741312741,18.7906977 0.370656371,17.3953488 1.11196911,16.0930233 C-1.2972973,13.3953488 0.463320463,10.1395349 6.76447876,10.1395349 C6.3011583,6.69767442 2.13127413,2.41860465 6.3011583,0.372093023 C7.04247104,-1.30451205e-15 7.96911197,-0.279069767 8.24710425,1.20930233 C9.26640927,5.11627907 8.52509653,3.44186047 12.3243243,7.72093023 C15.5675676,11.3488372 14.0849421,11.7209302 17.3281853,11.7209302 C18.0694981,11.8139535 18.6254826,11.5348837 18.996139,12.6511628 C19.9227799,15.1627907 19.8301158,17.6744186 18.9034749,20.1860465 C18.8108108,20.4651163 18.5328185,20.5581395 17.976834,20.5581395 C17.3281853,20.6511628 16.4942085,20.6511628 16.2162162,20.6511628 Z M18.3474903,19.0697674 C18.9034749,17.0232558 18.8108108,15.0697674 18.2548263,13.1162791 C18.0694981,12.744186 17.8841699,12.744186 17.5135135,12.744186 C13.8069498,12.6511628 14.8262548,12.0930233 11.8610039,8.55813953 C7.5984556,3.72093023 8.33976834,6.23255814 7.41312741,1.86046512 C7.32046332,1.11627907 7.13513514,1.11627907 6.48648649,1.39534884 C3.42857143,3.1627907 7.69111969,6.69767442 7.78378378,10.6046512 L7.78378378,11.0697674 C-2.68725869,11.0697674 1.48262548,16.0930233 3.7992278,16.0930233 C5.28185328,16.0930233 5.74517375,15.8139535 7.32046332,15.0697674 C8.15444015,14.6046512 8.52509653,14.5116279 7.69111969,13.8604651 C6.39382239,12.8372093 4.91119691,13.9534884 3.24324324,14.0465116 C2.5019305,13.4883721 3.15057915,13.1162791 3.52123552,13.0232558 C5.46718147,12.744186 7.04247104,11.9069767 8.8957529,13.7674419 C9.08108108,13.9534884 9.91505792,14.8837209 8.98841699,15.255814 C9.72972973,15.5348837 11.3976834,17.1162791 10.1003861,17.6744186 C10.4710425,17.8604651 10.8416988,18.2325581 11.1196911,18.6976744 C11.3050193,18.9767442 11.6756757,19.5348837 10.5637066,20.0930233 C10.9343629,20.372093 11.027027,20.5581395 11.3050193,20.9302326 C11.4903475,21.1162791 11.8610039,22.1395349 11.027027,22.5116279 L9.72972973,23.0697674 C11.5830116,23.627907 13.5289575,22.1395349 15.1042471,20.1860465 C15.3822394,19.8139535 15.6602317,19.7209302 16.2162162,19.7209302 C16.6795367,19.7209302 17.0501931,19.7209302 17.5135135,19.7209302 C18.0694981,19.7209302 18.1621622,19.7209302 18.3474903,19.0697674 Z M8.98841699,16.2790698 C7.50579151,14.9767442 6.85714286,17.0232558 4.16988417,17.0232558 C3.24324324,17.0232558 2.5019305,16.9302326 2.03861004,16.6511628 C0.463320463,18.8837209 5.83783784,18.5116279 6.02316602,18.4186047 C6.85714286,18.0465116 7.78378378,17.6744186 8.61776062,17.3023256 C9.17374517,17.0232558 9.54440154,16.9302326 8.98841699,16.2790698 Z M9.82239382,18.6976744 L9.08108108,18.0465116 C5.55984556,19.627907 6.94980695,19.3488372 3.15057915,19.3488372 C2.77992278,21.2093023 6.67181467,20.744186 6.67181467,20.744186 C7.69111969,20.2790698 8.61776062,19.9069767 9.63706564,19.4418605 C10.007722,19.255814 10.2857143,19.0697674 9.82239382,18.6976744 Z M9.54440154,20.4651163 C6.67181467,21.7674419 7.5984556,21.6744186 5.18918919,21.6744186 C5.18918919,23.1627907 7.04247104,23.1627907 7.5984556,23.0697674 C8.43243243,22.6976744 9.26640927,22.3255814 10.1003861,21.9534884 C11.027027,21.5813953 10.3783784,21.2093023 9.54440154,20.4651163 Z" id="Shape"></path>
                <path d="M21,12.1860465 C21.5865851,14.6046512 21.4399388,17.4883721 21,20 L22.6131091,20 C23.0530479,17.3953488 23.1996942,14.5116279 22.6131091,12 C22.026524,12.0930233 21.513262,12.0930233 21,12.1860465 Z M20.0689774,11.7104988 C19.8976181,11.5149304 20.0689774,11.2215777 20.3260162,11.1237935 C21.2684919,11.1237935 22.125288,11.0260093 23.0677636,11.0260093 C23.2391229,10.928225 23.3248025,11.1237935 23.4104821,11.3193619 C24.2672782,14.2528886 24.095919,17.6753364 23.4961617,20.7066473 C23.4104821,20.9022158 23.2391229,21 23.0677636,21 C22.6393656,21 21.3541715,21 20.4116958,21 C20.154657,20.9022158 20.0689774,20.7066473 20.154657,20.5110789 C20.7544142,17.7731206 20.9257734,14.4484571 20.0689774,11.7104988 Z" id="Shape"></path>
            </g>
        </g>
    </g>
</svg>