<?xml version="1.0" encoding="UTF-8"?>
<svg width="48px" height="48px" viewBox="0 0 48 48" version="1.1" xmlns="http://www.w3.org/2000/svg" xmlns:xlink="http://www.w3.org/1999/xlink">
    <!-- Generator: Sketch 53.1 (72631) - https://sketchapp.com -->
    <title>noun_thumbs up_1047342_1A1A1A</title>
    <desc>Created with Sketch.</desc>
    <g id="Attack-Simulator-Jakub-V5" stroke="none" stroke-width="1" fill="none" fill-rule="evenodd">
        <g id="results-detail-you-are-good" transform="translate(-404.000000, -323.000000)" fill="#1A1A1A" fill-rule="nonzero">
            <g id="noun_thumbs-up_1047342_1A1A1A" transform="translate(404.000000, 323.000000)">
                <path d="M32.4324324,41.3023256 C31.8764479,41.3023256 31.8764479,41.3023256 31.5057915,41.6744186 C22.980695,51.1627907 19.2741313,47.0697674 17.0501931,47.255814 L13.8996139,48 C10.007722,48 7.96911197,46.3255814 8.52509653,43.3488372 C5.18918919,42.9767442 4.26254826,41.1162791 4.63320463,38.3255814 C1.48262548,37.5813953 0.741312741,34.7906977 2.22393822,32.1860465 C-2.59459459,26.7906977 0.926640927,20.2790698 13.5289575,20.2790698 C12.6023166,13.3953488 4.26254826,4.8372093 12.6023166,0.744186047 C14.0849421,-2.66453526e-15 15.9382239,-0.558139535 16.4942085,2.41860465 C18.5328185,10.2325581 17.0501931,6.88372093 24.6486486,15.4418605 C31.1351351,22.6976744 28.1698842,23.4418605 34.6563707,23.4418605 C36.1389961,23.627907 37.2509653,23.0697674 37.992278,25.3023256 C39.8455598,30.3255814 39.6602317,35.3488372 37.8069498,40.372093 C37.6216216,40.9302326 37.0656371,41.1162791 35.953668,41.1162791 C34.6563707,41.3023256 32.988417,41.3023256 32.4324324,41.3023256 Z M36.6949807,38.1395349 C37.8069498,34.0465116 37.6216216,30.1395349 36.5096525,26.2325581 C36.1389961,25.4883721 35.7683398,25.4883721 35.027027,25.4883721 C27.6138996,25.3023256 29.6525097,24.1860465 23.7220077,17.1162791 C15.1969112,7.44186047 16.6795367,12.4651163 14.8262548,3.72093023 C14.6409266,2.23255814 14.2702703,2.23255814 12.972973,2.79069767 C6.85714286,6.3255814 15.3822394,13.3953488 15.5675676,21.2093023 L15.5675676,22.1395349 C-5.37451737,22.1395349 2.96525097,32.1860465 7.5984556,32.1860465 C10.5637066,32.1860465 11.4903475,31.627907 14.6409266,30.1395349 C16.3088803,29.2093023 17.0501931,29.0232558 15.3822394,27.7209302 C12.7876448,25.6744186 9.82239382,27.9069767 6.48648649,28.0930233 C5.003861,26.9767442 6.3011583,26.2325581 7.04247104,26.0465116 C10.9343629,25.4883721 14.0849421,23.8139535 17.7915058,27.5348837 C18.1621622,27.9069767 19.8301158,29.7674419 17.976834,30.5116279 C19.4594595,31.0697674 22.7953668,34.2325581 20.2007722,35.3488372 C20.9420849,35.7209302 21.6833977,36.4651163 22.2393822,37.3953488 C22.6100386,37.9534884 23.3513514,39.0697674 21.1274131,40.1860465 C21.8687259,40.744186 22.0540541,41.1162791 22.6100386,41.8604651 C22.980695,42.2325581 23.7220077,44.2790698 22.0540541,45.0232558 L19.4594595,46.1395349 C23.1660232,47.255814 27.0579151,44.2790698 30.2084942,40.372093 C30.7644788,39.627907 31.3204633,39.4418605 32.4324324,39.4418605 C33.3590734,39.4418605 34.1003861,39.4418605 35.027027,39.4418605 C36.1389961,39.4418605 36.3243243,39.4418605 36.6949807,38.1395349 Z M17.976834,32.5581395 C15.011583,29.9534884 13.7142857,34.0465116 8.33976834,34.0465116 C6.48648649,34.0465116 5.003861,33.8604651 4.07722008,33.3023256 C0.926640927,37.7674419 11.6756757,37.0232558 12.046332,36.8372093 C13.7142857,36.0930233 15.5675676,35.3488372 17.2355212,34.6046512 C18.3474903,34.0465116 19.0888031,33.8604651 17.976834,32.5581395 Z M19.6447876,37.3953488 L18.1621622,36.0930233 C11.1196911,39.255814 13.8996139,38.6976744 6.3011583,38.6976744 C5.55984556,42.4186047 13.3436293,41.4883721 13.3436293,41.4883721 C15.3822394,40.5581395 17.2355212,39.8139535 19.2741313,38.8837209 C20.015444,38.5116279 20.5714286,38.1395349 19.6447876,37.3953488 Z M19.0888031,40.9302326 C13.3436293,43.5348837 15.1969112,43.3488372 10.3783784,43.3488372 C10.3783784,46.3255814 14.0849421,46.3255814 15.1969112,46.1395349 C16.8648649,45.3953488 18.5328185,44.6511628 20.2007722,43.9069767 C22.0540541,43.1627907 20.7567568,42.4186047 19.0888031,40.9302326 Z" id="Shape"></path>
                <path d="M41.3281853,24.9302326 C42.8108108,29.7674419 42.4401544,35.5348837 41.3281853,40.5581395 L45.4054054,40.5581395 C46.5173745,35.3488372 46.8880309,29.5813953 45.4054054,24.5581395 C43.9227799,24.744186 42.6254826,24.744186 41.3281853,24.9302326 Z M39.4749035,24.372093 C39.1042471,24 39.4749035,23.4418605 40.030888,23.255814 C42.0694981,23.255814 43.9227799,23.0697674 45.96139,23.0697674 C46.3320463,22.8837209 46.5173745,23.255814 46.7027027,23.627907 C48.5559846,29.2093023 48.1853282,35.7209302 46.8880309,41.4883721 C46.7027027,41.8604651 46.3320463,42.0465116 45.96139,42.0465116 C45.034749,42.0465116 42.2548263,42.0465116 40.2162162,42.0465116 C39.6602317,41.8604651 39.4749035,41.4883721 39.6602317,41.1162791 C40.957529,35.9069767 41.3281853,29.5813953 39.4749035,24.372093 Z" id="Shape"></path>
            </g>
        </g>
    </g>
</svg>