<?xml version="1.0" encoding="UTF-8"?>
<svg width="18px" height="20px" viewBox="0 0 18 20" version="1.1" xmlns="http://www.w3.org/2000/svg" xmlns:xlink="http://www.w3.org/1999/xlink">
    <!-- Generator: Sketch 53.1 (72631) - https://sketchapp.com -->
    <title>Shape</title>
    <desc>Created with Sketch.</desc>
    <g id="Attack-Simulator-Jakub-V5" stroke="none" stroke-width="1" fill="none" fill-rule="evenodd">
        <g id="results-detail-you-are-good" transform="translate(-513.000000, -1075.000000)" fill="#FFFFFF" fill-rule="nonzero">
            <g id="Group-4" transform="translate(223.000000, 844.000000)">
                <g id="Group-2" transform="translate(266.000000, 159.000000)">
                    <path d="M33,72 C33,72 28.5112219,75.9111111 24,75.9111111 C24,79.7555556 24.0224439,83.5111111 25.6832918,86.4222222 C27.3890274,89.4222222 30.7107232,91.5111111 33,92 C35.2668329,91.4444444 38.4538653,89.3333333 40.1371571,86.4222222 C41.8204489,83.5111111 42,79.8 42,75.9333333 C37.4887781,75.9333333 33,72 33,72 Z M36.5461347,84.2444444 C36.9052369,84.6 36.9052369,85.1555556 36.5461347,85.5111111 C36.3665835,85.6666667 36.1421446,85.7555556 35.9177057,85.7555556 C35.6932668,85.7555556 35.4688279,85.6666667 35.2892768,85.4888889 L33,83.2444444 L30.7107232,85.4888889 C30.5311721,85.6666667 30.3067332,85.7555556 30.0822943,85.7555556 C29.8578554,85.7555556 29.6334165,85.6666667 29.4538653,85.4888889 C29.0947631,85.1333333 29.0947631,84.5777778 29.4538653,84.2222222 L31.7206983,81.9777778 L29.4538653,79.7111111 C29.0947631,79.3555556 29.0947631,78.8 29.4538653,78.4444444 C29.8129676,78.0888889 30.3740648,78.0888889 30.7331671,78.4444444 L33,80.7111111 L35.2892768,78.4444444 C35.6483791,78.0888889 36.2094763,78.0888889 36.5685786,78.4444444 C36.9276808,78.8 36.9276808,79.3555556 36.5685786,79.7111111 L34.2793017,81.9777778 L36.5461347,84.2444444 Z" id="Shape"></path>
                </g>
            </g>
        </g>
    </g>
</svg>