<?xml version="1.0" encoding="UTF-8"?>
<svg width="30px" height="30px" viewBox="0 0 30 30" version="1.1" xmlns="http://www.w3.org/2000/svg" xmlns:xlink="http://www.w3.org/1999/xlink">
    <!-- Generator: Sketch 53.1 (72631) - https://sketchapp.com -->
    <title>Combined Shape</title>
    <desc>Created with Sketch.</desc>
    <g id="Attack-Simulator-Jakub-V5" stroke="none" stroke-width="1" fill="none" fill-rule="evenodd">
        <g id="Attack-Simulator_BLACK" transform="translate(-220.000000, -513.000000)" fill="#FFFFFF">
            <path d="M248.684569,525.190407 C249.558756,526.62718 250,528.906859 250,532.029444 L250,543 L243.811727,543 L243.811727,533.249104 C243.811727,531.627148 243.658473,530.439416 243.346218,529.685909 C242.904974,528.504563 241.966293,527.904311 240.529535,527.904311 C239.092778,527.904311 238.064699,528.440706 237.43955,529.500725 C236.998306,530.311703 236.781196,531.499435 236.781196,533.06392 L236.781196,543 L230.5942,543 L230.5942,522.936271 L236.596014,522.936271 L236.596014,525.65656 L236.685412,525.65656 C237.126017,524.781726 237.809914,524.066532 238.747957,523.504594 C239.87182,522.814944 241.155323,522.470118 242.59208,522.470118 C245.465594,522.470118 247.49685,523.376881 248.684569,525.190407 Z M223.563158,513 C224.565695,513 225.421364,513.363982 226.142935,514.079176 C226.858121,514.800755 227.222099,515.643661 227.222099,516.607895 C227.222099,517.578515 226.858121,518.421421 226.142935,519.143 C225.421364,519.858194 224.565695,520.222176 223.563158,520.222176 C222.561259,520.222176 221.717723,519.858194 221.034465,519.143 C220.344822,518.421421 220,517.578515 220,516.607895 C220,515.643661 220.344822,514.800755 221.034465,514.079176 C221.717723,513.363982 222.561259,513 223.563158,513 Z M220.472725,543 L220.472725,522.936271 L226.749757,522.936271 L226.749757,543 L220.472725,543 Z" id="Combined-Shape"></path>
        </g>
    </g>
</svg>