<?xml version="1.0" encoding="UTF-8"?>
<svg width="44px" height="44px" viewBox="0 0 44 44" version="1.1" xmlns="http://www.w3.org/2000/svg" xmlns:xlink="http://www.w3.org/1999/xlink">
    <!-- Generator: Sketch 53.1 (72631) - https://sketchapp.com -->
    <title>noun_loading_1337185_1A1A1A</title>
    <desc>Created with Sketch.</desc>
    <g id="Attack-Simulator-Jakub-V5" stroke="none" stroke-width="1" fill="none" fill-rule="evenodd">
        <g id="results-detail-learn-more" transform="translate(-410.000000, -331.000000)" fill="#1A1A1A" fill-rule="nonzero">
            <g id="noun_loading_1337185_1A1A1A" transform="translate(410.000000, 331.000000)">
                <g id="Group">
                    <path d="M4.2625,13.40625 C4.60625,13.6125 4.95,13.68125 5.29375,13.68125 C5.9125,13.68125 6.53125,13.3375 6.94375,12.7875 C7.5625,11.75625 8.31875,10.8625 9.075,9.96875 C9.83125,9.2125 9.7625,7.975 9.00625,7.2875 C8.25,6.53125 7.0125,6.6 6.325,7.35625 C5.3625,8.3875 4.46875,9.55625 3.7125,10.79375 C3.09375,11.6875 3.36875,12.85625 4.2625,13.40625 Z" id="Path"></path>
                    <path d="M14.91875,38.15625 C12.16875,36.91875 9.69375,35.0625 7.90625,32.65625 C7.2875,31.83125 6.05,31.625 5.225,32.3125 C4.4,32.93125 4.19375,34.16875 4.88125,34.99375 C7.08125,37.88125 10.0375,40.21875 13.40625,41.73125 C13.68125,41.86875 13.8875,41.86875 14.1625,41.86875 C14.91875,41.86875 15.60625,41.45625 15.95,40.7 C16.3625,39.7375 15.88125,38.56875 14.91875,38.15625 Z" id="Path"></path>
                    <path d="M4.88125,26.33125 C4.2625,24.0625 4.19375,21.65625 4.46875,19.3875 C4.60625,18.35625 3.91875,17.39375 2.81875,17.25625 C1.7875,17.11875 0.825,17.80625 0.6875,18.90625 C0.275,21.725 0.4125,24.54375 1.16875,27.3625 C1.375,28.25625 2.2,28.80625 3.025,28.80625 C3.1625,28.80625 3.36875,28.80625 3.50625,28.7375 C4.5375,28.39375 5.15625,27.3625 4.88125,26.33125 Z" id="Path"></path>
                    <circle id="Oval" transform="translate(14.266959, 4.007768) rotate(-73.757901) translate(-14.266959, -4.007768) " cx="14.2669588" cy="4.0077675" r="1.85627237"></circle>
                    <path d="M21.93125,0.4125 C20.9,0.4125 20.00625,1.2375 20.00625,2.3375 C20.00625,3.36875 20.83125,4.2625 21.93125,4.2625 C31.69375,4.2625 39.66875,12.2375 39.66875,22 C39.66875,23.85625 39.39375,25.7125 38.775,27.56875 C38.43125,28.6 38.98125,29.63125 40.0125,29.975 C40.21875,30.04375 40.425,30.04375 40.63125,30.04375 C41.45625,30.04375 42.2125,29.5625 42.41875,28.7375 C43.175,26.5375 43.51875,24.26875 43.51875,22 C43.51875,10.10625 33.825,0.4125 21.93125,0.4125 Z" id="Path"></path>
                    <path d="M34.99375,33.9625 C31.625,37.60625 26.88125,39.7375 21.93125,39.7375 C20.9,39.7375 20.00625,40.5625 20.00625,41.6625 C20.00625,42.69375 20.83125,43.5875 21.93125,43.5875 C27.9125,43.5875 33.75625,41.04375 37.8125,36.575 C38.5,35.81875 38.5,34.58125 37.675,33.89375 C36.91875,33.1375 35.75,33.20625 34.99375,33.9625 Z" id="Path"></path>
                </g>
                <polygon id="Path" points="33.9625 16.225 19.1125 31.075 10.0375 21.93125 13.3375 18.63125 19.1125 24.40625 30.59375 12.925"></polygon>
            </g>
        </g>
    </g>
</svg>