<?xml version="1.0" encoding="UTF-8"?>
<svg width="23px" height="20px" viewBox="0 0 23 20" version="1.1" xmlns="http://www.w3.org/2000/svg" xmlns:xlink="http://www.w3.org/1999/xlink">
    <!-- Generator: Sketch 53.1 (72631) - https://sketchapp.com -->
    <title>noun_Warning_1042971_1A1A1A</title>
    <desc>Created with Sketch.</desc>
    <g id="Attack-Simulator-Jakub-V5" stroke="none" stroke-width="1" fill="none" fill-rule="evenodd">
        <g id="results-detail-you-are-fucked" transform="translate(-741.000000, -1447.000000)" fill="#DC3B3B" fill-rule="nonzero">
            <g id="noun_Warning_1042971_1A1A1A" transform="translate(741.000000, 1447.000000)">
                <path d="M11.4285735,0.294114706 C10.7078262,0.294114706 10.0597266,0.651173529 9.68864674,1.27757059 L0.567767912,16.7003588 C0.196591355,17.3285941 0.195618462,18.0856235 0.567767912,18.7132412 C0.861740073,19.2090353 1.4759115,19.7076824 2.19780454,19.7058882 L20.6593427,19.7058882 C21.3809486,19.7058882 21.9953662,19.2090941 22.2893793,18.7132412 C22.6615171,18.0856235 22.6605559,17.3285941 22.2893793,16.7003588 L13.1685002,1.27757059 C12.7974204,0.651173529 12.1493178,0.294114706 11.4285735,0.294114706 L11.4285735,0.294114706 Z M11.4285735,2.05882059 C11.5039024,2.05882059 11.6298804,2.13166176 11.6575112,2.17830588 L20.7783903,17.6010941 C20.8059654,17.6477706 20.8060533,17.7658294 20.7783903,17.8125059 C20.6725969,17.9909176 20.7354629,17.9413588 20.6593427,17.9411824 L2.19780454,17.9411824 C2.12197744,17.9413588 2.18458842,17.9909765 2.07875692,17.8125059 C2.05109392,17.7658588 2.05118183,17.6477706 2.07875692,17.6010941 L11.1996358,2.17830588 C11.2272695,2.13166176 11.3532416,2.05882059 11.4285735,2.05882059 L11.4285735,2.05882059 Z M11.4285735,6.47058529 C10.6193691,6.47058529 9.96337201,7.12899412 9.96337201,7.94117353 L10.2564123,12.3529471 C10.2564123,13.0026824 10.7812094,13.5294176 11.4285735,13.5294176 C12.0759347,13.5294176 12.6007347,13.0026824 12.6007347,12.3529471 L12.8937749,7.94117353 C12.8937749,7.12899412 12.2377779,6.47058529 11.4285735,6.47058529 Z M11.4285735,14.1176529 C10.6193662,14.1176529 9.96337201,14.7760647 9.96337201,15.5882412 C9.96337201,16.4003882 10.6193662,17.0588294 11.4285735,17.0588294 C12.2377808,17.0588294 12.8937749,16.4003882 12.8937749,15.5882412 C12.8937749,14.7760647 12.2377808,14.1176529 11.4285735,14.1176529 Z" id="Shape"></path>
            </g>
        </g>
    </g>
</svg>